<svg width="166" height="50" viewBox="0 0 166 50" fill="none" xmlns="http://www.w3.org/2000/svg">
<path d="M41.5695 20.07C41.2196 9.11059 32.3392 0.266489 21.3429 0C21.0597 0 20.8264 0.216522 20.8264 0.499667L20.8098 7.86143C20.8098 8.22785 20.5265 8.51099 20.16 8.52765C9.19696 8.86076 0.349906 17.7548 0.0833282 28.7475C0.0833282 29.0306 0.299923 29.2638 0.583162 29.2638L7.93071 29.2805C8.29726 29.2805 8.58049 29.5636 8.59716 29.93C8.94704 40.8894 17.8441 49.7335 28.8237 50C29.107 50 29.3402 49.7835 29.3402 49.5003L29.3569 42.1386C29.3569 41.7722 29.6401 41.489 30.0067 41.4724C40.9697 41.1226 49.8167 32.2285 50.0833 21.2525C50.0833 20.9694 49.8667 20.7362 49.5835 20.7362L42.2359 20.7195C41.8694 20.7195 41.5862 20.4364 41.5695 20.07ZM28.6238 41.4224C22.3926 41.056 17.3942 35.9927 17.161 29.7302C17.1443 29.4637 16.9277 29.2472 16.6611 29.2472L9.33025 29.2305C8.94704 29.2305 8.64714 28.9141 8.6638 28.531C9.03034 22.3018 14.0953 17.3051 20.3599 17.072C20.6265 17.0553 20.8431 16.8388 20.8431 16.5723L20.8597 9.22718C20.8597 8.8441 21.1763 8.5443 21.5595 8.56096C27.7908 8.92738 32.7891 13.9907 33.0223 20.2532C33.039 20.5197 33.2556 20.7362 33.5222 20.7362L40.8531 20.7528C41.2363 20.7528 41.5362 21.0693 41.5195 21.4524C41.153 27.8481 35.8381 32.928 29.3569 32.928L29.3402 40.7562C29.3236 41.1392 29.007 41.439 28.6238 41.4224Z" fill="#E60000"/>
<path fill-rule="evenodd" clip-rule="evenodd" d="M20.6086 20.5691C20.6086 19.5613 21.6891 18.9224 22.5721 19.4081L30.7274 23.8935C31.6427 24.3969 31.6427 25.712 30.7274 26.2154L22.5721 30.7008C21.6891 31.1865 20.6086 30.5477 20.6086 29.5399V20.5691Z" fill="white"/>
<path d="M52.5833 22.4212C52.5833 21.7889 52.7026 21.1957 52.9411 20.6416C53.1796 20.0875 53.5023 19.6044 53.9091 19.1923C54.323 18.7732 54.8035 18.4428 55.3506 18.2013C55.8978 17.9597 56.4835 17.839 57.1078 17.839H64.0314V20.8974H57.1078C56.8974 20.8974 56.701 20.9364 56.5186 21.0146C56.3362 21.0927 56.1749 21.2028 56.0346 21.3449C55.9013 21.4799 55.7961 21.6398 55.7189 21.8245C55.6417 22.0092 55.6032 22.2081 55.6032 22.4212C55.6032 22.6344 55.6417 22.8368 55.7189 23.0286C55.7961 23.2134 55.9013 23.3768 56.0346 23.5188C56.1749 23.6538 56.3362 23.7604 56.5186 23.8385C56.701 23.9167 56.8974 23.9558 57.1078 23.9558H60.1277C60.752 23.9558 61.3377 24.0765 61.8848 24.3181C62.439 24.5525 62.9195 24.8793 63.3264 25.2985C63.7402 25.7105 64.0629 26.1972 64.2944 26.7584C64.5329 27.3125 64.6522 27.9057 64.6522 28.538C64.6522 29.1703 64.5329 29.7635 64.2944 30.3176C64.0629 30.8718 63.7402 31.3584 63.3264 31.7776C62.9195 32.1896 62.439 32.5164 61.8848 32.758C61.3377 32.9995 60.752 33.1203 60.1277 33.1203H53.4251V30.0619H60.1277C60.3381 30.0619 60.5345 30.0228 60.7169 29.9447C60.8993 29.8665 61.0571 29.76 61.1904 29.625C61.3307 29.4829 61.4394 29.3195 61.5166 29.1348C61.5937 28.9501 61.6323 28.7511 61.6323 28.538C61.6323 28.3249 61.5937 28.126 61.5166 27.9413C61.4394 27.7565 61.3307 27.5967 61.1904 27.4617C61.0571 27.3196 60.8993 27.2095 60.7169 27.1314C60.5345 27.0532 60.3381 27.0141 60.1277 27.0141H57.1078C56.4835 27.0141 55.8978 26.8934 55.3506 26.6518C54.8035 26.4103 54.323 26.0835 53.9091 25.6714C53.5023 25.2523 53.1796 24.7656 52.9411 24.2115C52.7026 23.6503 52.5833 23.0535 52.5833 22.4212Z" fill="white"/>
<path d="M71.7966 33.1203C71.1022 33.1203 70.4498 32.9889 69.8395 32.726C69.2293 32.456 68.6926 32.0902 68.2297 31.6284C67.7737 31.1595 67.4124 30.616 67.1459 29.998C66.8863 29.3799 66.7566 28.7192 66.7566 28.0159V24.6271H65.3571V21.7286H66.7566V17.1676H69.6186V21.7286H73.9747V24.6271H69.6186V28.0159C69.6186 28.3213 69.6747 28.6091 69.7869 28.879C69.8992 29.1419 70.0535 29.3728 70.2499 29.5717C70.4463 29.7706 70.6778 29.9305 70.9444 30.0512C71.2109 30.1649 71.495 30.2217 71.7966 30.2217H73.9747V33.1203H71.7966Z" fill="white"/>
<path d="M78.4676 33.1203H75.5951V21.7072H76.2896L77.2366 23.0606C77.6995 22.6344 78.2256 22.3076 78.8149 22.0802C79.4041 21.8458 80.0144 21.7286 80.6457 21.7286H83.1815V24.6271H80.6457C80.3441 24.6271 80.06 24.6839 79.7934 24.7976C79.5269 24.9113 79.2954 25.0676 79.099 25.2665C78.9026 25.4654 78.7482 25.6999 78.636 25.9698C78.5238 26.2398 78.4676 26.5275 78.4676 26.833V33.1203Z" fill="white"/>
<path d="M88.7898 30.3283C88.902 30.3638 89.0143 30.3887 89.1265 30.4029C89.2388 30.41 89.351 30.4136 89.4632 30.4136C89.7438 30.4136 90.0139 30.3745 90.2734 30.2963C90.533 30.2182 90.775 30.1081 90.9994 29.966C91.2309 29.8168 91.4344 29.6392 91.6097 29.4332C91.7921 29.22 91.9394 28.9856 92.0517 28.7298L94.1561 30.8718C93.8895 31.2554 93.5809 31.6 93.2301 31.9055C92.8864 32.2109 92.5111 32.4702 92.1043 32.6834C91.7044 32.8965 91.28 33.0563 90.8311 33.1629C90.3892 33.2766 89.9332 33.3334 89.4632 33.3334C88.6706 33.3334 87.9235 33.1842 87.222 32.8858C86.5276 32.5875 85.9173 32.1719 85.3912 31.639C84.8721 31.1062 84.4617 30.4739 84.1601 29.7422C83.8585 29.0034 83.7076 28.1935 83.7076 27.3125C83.7076 26.4103 83.8585 25.5862 84.1601 24.8402C84.4617 24.0943 84.8721 23.4585 85.3912 22.9327C85.9173 22.407 86.5276 21.9985 87.222 21.7072C87.9235 21.416 88.6706 21.2703 89.4632 21.2703C89.9332 21.2703 90.3927 21.3272 90.8416 21.4408C91.2906 21.5545 91.715 21.7179 92.1148 21.931C92.5216 22.1442 92.9004 22.407 93.2512 22.7196C93.6019 23.0251 93.9106 23.3696 94.1771 23.7533L88.7898 30.3283ZM90.2629 24.3287C90.1296 24.279 89.9963 24.247 89.8631 24.2328C89.7368 24.2186 89.6035 24.2115 89.4632 24.2115C89.0704 24.2115 88.6986 24.2861 88.3479 24.4353C88.0042 24.5774 87.7025 24.7834 87.443 25.0534C87.1905 25.3233 86.9905 25.6501 86.8432 26.0338C86.6959 26.4103 86.6223 26.8365 86.6223 27.3125C86.6223 27.4191 86.6258 27.5399 86.6328 27.6748C86.6468 27.8098 86.6644 27.9484 86.6854 28.0904C86.7135 28.2254 86.745 28.3569 86.7801 28.4847C86.8152 28.6126 86.8608 28.7263 86.9169 28.8257L90.2629 24.3287Z" fill="white"/>
<path d="M106.456 33.1203H105.762L104.647 31.5538C104.373 31.8024 104.082 32.0369 103.773 32.2571C103.472 32.4702 103.152 32.6585 102.816 32.8219C102.479 32.9782 102.132 33.1025 101.774 33.1949C101.423 33.2872 101.066 33.3334 100.701 33.3334C99.9081 33.3334 99.1611 33.1984 98.4596 32.9285C97.7651 32.6585 97.1549 32.2678 96.6288 31.7563C96.1097 31.2376 95.6993 30.6054 95.3977 29.8594C95.096 29.1135 94.9452 28.2645 94.9452 27.3125C94.9452 26.4245 95.096 25.6111 95.3977 24.8722C95.6993 24.1263 96.1097 23.4869 96.6288 22.954C97.1549 22.4212 97.7651 22.0092 98.4596 21.7179C99.1611 21.4195 99.9081 21.2703 100.701 21.2703C101.066 21.2703 101.427 21.3165 101.785 21.4089C102.142 21.5012 102.49 21.6291 102.826 21.7925C103.163 21.9559 103.482 22.1477 103.784 22.3679C104.092 22.5882 104.38 22.8262 104.647 23.0819L105.762 21.7286H106.456V33.1203ZM103.563 27.3125C103.563 26.9147 103.486 26.5311 103.331 26.1616C103.184 25.7851 102.981 25.4548 102.721 25.1706C102.462 24.8793 102.156 24.6484 101.806 24.4779C101.462 24.3003 101.094 24.2115 100.701 24.2115C100.308 24.2115 99.9362 24.279 99.5855 24.414C99.2417 24.549 98.9401 24.7479 98.6806 25.0107C98.428 25.2736 98.2281 25.6004 98.0808 25.9911C97.9335 26.3748 97.8598 26.8152 97.8598 27.3125C97.8598 27.8098 97.9335 28.2538 98.0808 28.6446C98.2281 29.0282 98.428 29.3515 98.6806 29.6143C98.9401 29.8772 99.2417 30.0761 99.5855 30.2111C99.9362 30.3461 100.308 30.4136 100.701 30.4136C101.094 30.4136 101.462 30.3283 101.806 30.1578C102.156 29.9802 102.462 29.7493 102.721 29.4651C102.981 29.1739 103.184 28.8435 103.331 28.4741C103.486 28.0976 103.563 27.7104 103.563 27.3125Z" fill="white"/>
<path d="M122.987 33.1203H120.125V25.8739C120.125 25.675 120.086 25.4867 120.009 25.3091C119.939 25.1315 119.837 24.9752 119.704 24.8402C119.57 24.7053 119.416 24.6022 119.241 24.5312C119.065 24.4531 118.879 24.414 118.683 24.414C118.487 24.414 118.301 24.4531 118.125 24.5312C117.957 24.6022 117.806 24.7053 117.673 24.8402C117.547 24.9752 117.445 25.1315 117.368 25.3091C117.298 25.4867 117.263 25.675 117.263 25.8739V33.1203H114.39V25.8739C114.39 25.675 114.351 25.4867 114.274 25.3091C114.204 25.1315 114.102 24.9752 113.969 24.8402C113.836 24.7053 113.682 24.6022 113.506 24.5312C113.331 24.4531 113.145 24.414 112.949 24.414C112.752 24.414 112.566 24.4531 112.391 24.5312C112.222 24.6022 112.072 24.7053 111.938 24.8402C111.812 24.9752 111.71 25.1315 111.633 25.3091C111.563 25.4867 111.528 25.675 111.528 25.8739V33.1203H108.656V21.7072H109.35L110.129 22.5811C110.528 22.2401 110.967 21.9772 111.444 21.7925C111.928 21.6007 112.429 21.5048 112.949 21.5048C113.475 21.5048 113.987 21.6042 114.485 21.8032C114.99 22.0021 115.432 22.3466 115.811 22.8368C115.986 22.5953 116.186 22.3893 116.41 22.2188C116.635 22.0482 116.87 21.9097 117.115 21.8032C117.368 21.6966 117.627 21.622 117.894 21.5794C118.16 21.5296 118.424 21.5048 118.683 21.5048C119.279 21.5048 119.837 21.6184 120.356 21.8458C120.882 22.0731 121.338 22.3857 121.724 22.7835C122.117 23.1743 122.425 23.6361 122.65 24.1689C122.874 24.7017 122.987 25.27 122.987 25.8739V33.1203Z" fill="white"/>
<path d="M136.928 17.839L131.972 33.1203H128.953L124.018 17.839H127.448L130.457 28.0372L133.477 17.839H136.928Z" fill="white"/>
<path d="M141.463 18.6062C141.463 18.8762 141.411 19.1284 141.306 19.3628C141.207 19.5973 141.071 19.8033 140.895 19.9809C140.72 20.1514 140.513 20.2899 140.274 20.3965C140.043 20.496 139.794 20.5457 139.527 20.5457C139.261 20.5457 139.008 20.496 138.77 20.3965C138.538 20.2899 138.335 20.1514 138.159 19.9809C137.991 19.8033 137.854 19.5973 137.749 19.3628C137.651 19.1284 137.602 18.8762 137.602 18.6062C137.602 18.3434 137.651 18.0947 137.749 17.8603C137.854 17.6187 137.991 17.4127 138.159 17.2422C138.335 17.0646 138.538 16.9261 138.77 16.8266C139.008 16.72 139.261 16.6667 139.527 16.6667C139.794 16.6667 140.043 16.72 140.274 16.8266C140.513 16.9261 140.72 17.0646 140.895 17.2422C141.071 17.4127 141.207 17.6187 141.306 17.8603C141.411 18.0947 141.463 18.3434 141.463 18.6062ZM140.969 33.1203H138.075V21.7072H140.969V33.1203Z" fill="white"/>
<path d="M154.448 27.3125C154.448 28.2077 154.297 29.0247 153.995 29.7635C153.694 30.5024 153.283 31.1382 152.764 31.671C152.245 32.1967 151.635 32.6052 150.933 32.8965C150.239 33.1878 149.492 33.3334 148.692 33.3334C147.899 33.3334 147.152 33.1842 146.451 32.8858C145.756 32.5875 145.146 32.1719 144.62 31.639C144.101 31.1062 143.691 30.4739 143.389 29.7422C143.087 29.0034 142.936 28.1935 142.936 27.3125V17.1676H145.819V22.4958C145.974 22.2969 146.16 22.1193 146.377 21.963C146.602 21.8067 146.84 21.6788 147.093 21.5794C147.352 21.4799 147.619 21.4053 147.892 21.3556C148.166 21.2987 148.432 21.2703 148.692 21.2703C149.492 21.2703 150.239 21.4231 150.933 21.7286C151.635 22.0269 152.245 22.4461 152.764 22.986C153.283 23.5259 153.694 24.1653 153.995 24.9042C154.297 25.6359 154.448 26.4387 154.448 27.3125ZM151.554 27.3125C151.554 26.8721 151.477 26.4636 151.323 26.087C151.175 25.7034 150.972 25.3731 150.712 25.096C150.453 24.8189 150.148 24.6022 149.797 24.4459C149.453 24.2897 149.085 24.2115 148.692 24.2115C148.299 24.2115 147.927 24.3003 147.577 24.4779C147.233 24.6484 146.931 24.8793 146.672 25.1706C146.412 25.4548 146.209 25.7851 146.062 26.1616C145.914 26.5311 145.841 26.9147 145.841 27.3125C145.841 27.753 145.914 28.1615 146.062 28.538C146.209 28.9145 146.412 29.2413 146.672 29.5184C146.931 29.7955 147.233 30.0157 147.577 30.1791C147.927 30.3354 148.299 30.4136 148.692 30.4136C149.085 30.4136 149.453 30.3354 149.797 30.1791C150.148 30.0157 150.453 29.7955 150.712 29.5184C150.972 29.2413 151.175 28.9145 151.323 28.538C151.477 28.1615 151.554 27.753 151.554 27.3125Z" fill="white"/>
<path d="M160.529 30.3283C160.642 30.3638 160.754 30.3887 160.866 30.4029C160.978 30.41 161.091 30.4136 161.203 30.4136C161.483 30.4136 161.753 30.3745 162.013 30.2963C162.273 30.2182 162.515 30.1081 162.739 29.966C162.97 29.8168 163.174 29.6392 163.349 29.4332C163.532 29.22 163.679 28.9856 163.791 28.7298L165.896 30.8718C165.629 31.2554 165.32 31.6 164.97 31.9055C164.626 32.2109 164.251 32.4702 163.844 32.6834C163.444 32.8965 163.02 33.0563 162.571 33.1629C162.129 33.2766 161.673 33.3334 161.203 33.3334C160.41 33.3334 159.663 33.1842 158.962 32.8858C158.267 32.5875 157.657 32.1719 157.131 31.639C156.612 31.1062 156.201 30.4739 155.9 29.7422C155.598 29.0034 155.447 28.1935 155.447 27.3125C155.447 26.4103 155.598 25.5862 155.9 24.8402C156.201 24.0943 156.612 23.4585 157.131 22.9327C157.657 22.407 158.267 21.9985 158.962 21.7072C159.663 21.416 160.41 21.2703 161.203 21.2703C161.673 21.2703 162.132 21.3272 162.581 21.4408C163.03 21.5545 163.455 21.7179 163.854 21.931C164.261 22.1442 164.64 22.407 164.991 22.7196C165.341 23.0251 165.65 23.3696 165.917 23.7533L160.529 30.3283ZM162.002 24.3287C161.869 24.279 161.736 24.247 161.603 24.2328C161.476 24.2186 161.343 24.2115 161.203 24.2115C160.81 24.2115 160.438 24.2861 160.087 24.4353C159.744 24.5774 159.442 24.7834 159.183 25.0534C158.93 25.3233 158.73 25.6501 158.583 26.0338C158.435 26.4103 158.362 26.8365 158.362 27.3125C158.362 27.4191 158.365 27.5399 158.372 27.6748C158.386 27.8098 158.404 27.9484 158.425 28.0904C158.453 28.2254 158.485 28.3569 158.52 28.4847C158.555 28.6126 158.6 28.7263 158.656 28.8257L162.002 24.3287Z" fill="white"/>
</svg>
