<svg width="200" height="60" viewBox="0 0 200 60" fill="none" xmlns="http://www.w3.org/2000/svg">
<path d="M50.6167 24.0839C50.1969 10.9327 39.5404 0.319787 26.3448 0C26.0049 0 25.725 0.259827 25.725 0.5996L25.705 9.43371C25.705 9.87342 25.3651 10.2132 24.9253 10.2332C11.7697 10.6329 1.15321 21.3058 0.833313 34.497C0.833313 34.8368 1.09323 35.1166 1.43311 35.1166L10.2502 35.1366C10.69 35.1366 11.0299 35.4763 11.0499 35.9161C11.4698 49.0673 22.1462 59.6802 35.3218 60C35.6617 60 35.9416 59.7402 35.9416 59.4004L35.9616 50.5663C35.9616 50.1266 36.3015 49.7868 36.7413 49.7668C49.897 49.3471 60.5134 38.6742 60.8333 25.503C60.8333 25.1632 60.5734 24.8834 60.2335 24.8834L51.4165 24.8634C50.9766 24.8634 50.6367 24.5236 50.6167 24.0839ZM35.0819 49.7069C27.6044 49.2672 21.6064 43.1912 21.3265 35.6762C21.3065 35.3564 21.0466 35.0966 20.7267 35.0966L11.9296 35.0766C11.4698 35.0766 11.1099 34.6969 11.1299 34.2372C11.5697 26.7622 17.6477 20.7662 25.1652 20.4863C25.4851 20.4664 25.745 20.2065 25.745 19.8867L25.765 11.0726C25.765 10.6129 26.1449 10.2532 26.6047 10.2732C34.0822 10.7129 40.0802 16.7888 40.3601 24.3038C40.3801 24.6236 40.64 24.8834 40.9599 24.8834L49.757 24.9034C50.2169 24.9034 50.5767 25.2831 50.5567 25.7428C50.1169 33.4177 43.739 39.5137 35.9616 39.5137L35.9416 48.9074C35.9216 49.3671 35.5417 49.7268 35.0819 49.7069Z" fill="#E60000"/>
<path fill-rule="evenodd" clip-rule="evenodd" d="M25.4637 24.6828C25.4637 23.4735 26.7603 22.7068 27.8199 23.2897L37.6062 28.6721C38.7046 29.2762 38.7046 30.8544 37.6062 31.4585L27.8199 36.841C26.7603 37.4238 25.4637 36.6571 25.4637 35.4478V24.6828Z" fill="white"/>
<path d="M63.8333 26.9054C63.8333 26.1466 63.9764 25.4348 64.2626 24.7698C64.5488 24.1049 64.936 23.5251 65.4243 23.0307C65.9209 22.5277 66.4975 22.1313 67.1541 21.8414C67.8107 21.5516 68.5135 21.4066 69.2627 21.4066H77.5709V25.0767H69.2627C69.0102 25.0767 68.7745 25.1236 68.5556 25.2174C68.3368 25.3112 68.1432 25.4433 67.9748 25.6138C67.8149 25.7758 67.6886 25.9676 67.596 26.1893C67.5034 26.4109 67.4571 26.6496 67.4571 26.9054C67.4571 27.1611 67.5034 27.4041 67.596 27.6343C67.6886 27.8559 67.8149 28.052 67.9748 28.2225C68.1432 28.3845 68.3368 28.5124 68.5556 28.6061C68.7745 28.6999 69.0102 28.7468 69.2627 28.7468H72.8865C73.6357 28.7468 74.3386 28.8917 74.9951 29.1816C75.6601 29.4629 76.2367 29.8551 76.725 30.3581C77.2216 30.8525 77.6088 31.4365 77.8866 32.11C78.1728 32.7749 78.3159 33.4868 78.3159 34.2455C78.3159 35.0043 78.1728 35.7161 77.8866 36.3811C77.6088 37.046 77.2216 37.63 76.725 38.133C76.2367 38.6275 75.6601 39.0196 74.9951 39.3095C74.3386 39.5993 73.6357 39.7442 72.8865 39.7442H64.8434V36.0742H72.8865C73.139 36.0742 73.3747 36.0273 73.5936 35.9335C73.8125 35.8397 74.0019 35.7118 74.1618 35.5499C74.3301 35.3794 74.4606 35.1833 74.5532 34.9616C74.6458 34.74 74.6921 34.5013 74.6921 34.2455C74.6921 33.9898 74.6458 33.7511 74.5532 33.5294C74.4606 33.3078 74.3301 33.1159 74.1618 32.954C74.0019 32.7835 73.8125 32.6513 73.5936 32.5575C73.3747 32.4638 73.139 32.4169 72.8865 32.4169H69.2627C68.5135 32.4169 67.8107 32.272 67.1541 31.9821C66.4975 31.6922 65.9209 31.3001 65.4243 30.8056C64.936 30.3026 64.5488 29.7187 64.2626 29.0537C63.9764 28.3802 63.8333 27.6641 63.8333 26.9054Z" fill="white"/>
<path d="M86.8893 39.7442C86.0559 39.7442 85.2731 39.5865 84.5408 39.2711C83.8084 38.9471 83.1645 38.5081 82.6089 37.954C82.0618 37.3913 81.6283 36.7391 81.3084 35.9974C80.9969 35.2558 80.8412 34.4629 80.8412 33.6189V29.5524H79.1619V26.0742H80.8412V20.601H84.2756V26.0742H89.503V29.5524H84.2756V33.6189C84.2756 33.9855 84.343 34.3308 84.4776 34.6547C84.6123 34.9702 84.7975 35.2472 85.0332 35.4859C85.2689 35.7246 85.5467 35.9165 85.8666 36.0614C86.1864 36.1978 86.5273 36.266 86.8893 36.266H89.503V39.7442H86.8893Z" fill="white"/>
<path d="M94.8945 39.7442H91.4475V26.0486H92.2808L93.4172 27.6726C93.9728 27.1611 94.6041 26.769 95.3112 26.4962C96.0183 26.2148 96.7506 26.0742 97.5082 26.0742H100.551V29.5524H97.5082C97.1462 29.5524 96.8053 29.6206 96.4854 29.757C96.1656 29.8934 95.8878 30.081 95.6521 30.3197C95.4164 30.5584 95.2312 30.8397 95.0965 31.1637C94.9618 31.4876 94.8945 31.8329 94.8945 32.1995V39.7442Z" fill="white"/>
<path d="M107.281 36.3939C107.416 36.4365 107.55 36.4663 107.685 36.4834C107.82 36.4919 107.955 36.4962 108.089 36.4962C108.426 36.4962 108.75 36.4493 109.061 36.3555C109.373 36.2617 109.663 36.1296 109.933 35.9591C110.21 35.7801 110.455 35.5669 110.665 35.3197C110.884 35.0639 111.061 34.7826 111.195 34.4757L113.721 37.046C113.401 37.5064 113.03 37.9199 112.609 38.2864C112.197 38.653 111.747 38.9642 111.258 39.2199C110.779 39.4757 110.269 39.6675 109.731 39.7954C109.2 39.9318 108.653 40 108.089 40C107.138 40 106.242 39.821 105.4 39.4629C104.566 39.1049 103.834 38.6061 103.203 37.9668C102.58 37.3274 102.087 36.5686 101.725 35.6905C101.363 34.8039 101.182 33.8321 101.182 32.7749C101.182 31.6922 101.363 30.7033 101.725 29.8082C102.087 28.913 102.58 28.15 103.203 27.5192C103.834 26.8883 104.566 26.3981 105.4 26.0486C106.242 25.6991 107.138 25.5243 108.089 25.5243C108.653 25.5243 109.205 25.5925 109.743 25.7289C110.282 25.8653 110.791 26.0614 111.271 26.3171C111.759 26.5729 112.214 26.8883 112.635 27.2634C113.056 27.63 113.426 28.0435 113.746 28.5038L107.281 36.3939ZM109.049 29.1944C108.889 29.1347 108.729 29.0963 108.569 29.0793C108.417 29.0622 108.258 29.0537 108.089 29.0537C107.618 29.0537 107.172 29.1432 106.751 29.3223C106.338 29.4928 105.976 29.74 105.665 30.0639C105.362 30.3879 105.122 30.7801 104.945 31.2404C104.768 31.6922 104.68 32.2038 104.68 32.7749C104.68 32.9028 104.684 33.0477 104.693 33.2097C104.709 33.3717 104.731 33.5379 104.756 33.7084C104.789 33.8704 104.827 34.0281 104.869 34.1816C104.912 34.335 104.966 34.4714 105.034 34.5908L109.049 29.1944Z" fill="white"/>
<path d="M128.481 39.7442H127.648L126.309 37.8645C125.981 38.1628 125.632 38.4442 125.261 38.7084C124.899 38.9642 124.516 39.1901 124.112 39.3862C123.708 39.5737 123.291 39.7229 122.862 39.8338C122.441 39.9446 122.012 40 121.574 40C120.623 40 119.727 39.838 118.885 39.5141C118.051 39.1901 117.319 38.7212 116.688 38.1074C116.065 37.4851 115.572 36.7263 115.211 35.8312C114.849 34.9361 114.668 33.9173 114.668 32.7749C114.668 31.7093 114.849 30.7332 115.211 29.8465C115.572 28.9514 116.065 28.1841 116.688 27.5448C117.319 26.9054 118.051 26.4109 118.885 26.0614C119.727 25.7033 120.623 25.5243 121.574 25.5243C122.012 25.5243 122.446 25.5797 122.875 25.6905C123.304 25.8014 123.721 25.9548 124.125 26.1509C124.529 26.347 124.912 26.5772 125.274 26.8414C125.644 27.1057 125.989 27.3913 126.309 27.6982L127.648 26.0742H128.481V39.7442ZM125.009 32.7749C125.009 32.2975 124.916 31.8372 124.731 31.3939C124.554 30.942 124.31 30.5456 123.999 30.2046C123.687 29.8551 123.321 29.578 122.9 29.3734C122.488 29.1603 122.046 29.0537 121.574 29.0537C121.103 29.0537 120.657 29.1347 120.236 29.2967C119.823 29.4587 119.461 29.6974 119.15 30.0128C118.847 30.3282 118.607 30.7204 118.43 31.1893C118.254 31.6496 118.165 32.1782 118.165 32.7749C118.165 33.3717 118.254 33.9045 118.43 34.3734C118.607 34.8338 118.847 35.2217 119.15 35.5371C119.461 35.8525 119.823 36.0912 120.236 36.2532C120.657 36.4152 121.103 36.4962 121.574 36.4962C122.046 36.4962 122.488 36.3939 122.9 36.1893C123.321 35.9761 123.687 35.6991 123.999 35.3581C124.31 35.0085 124.554 34.6121 124.731 34.1688C124.916 33.717 125.009 33.2523 125.009 32.7749Z" fill="white"/>
<path d="M148.317 39.7442H144.883V31.0486C144.883 30.8099 144.837 30.584 144.744 30.3708C144.66 30.1577 144.538 29.9702 144.378 29.8082C144.218 29.6462 144.033 29.5226 143.822 29.4373C143.612 29.3436 143.389 29.2967 143.153 29.2967C142.917 29.2967 142.694 29.3436 142.484 29.4373C142.282 29.5226 142.101 29.6462 141.941 29.8082C141.789 29.9702 141.667 30.1577 141.575 30.3708C141.49 30.584 141.448 30.8099 141.448 31.0486V39.7442H138.001V31.0486C138.001 30.8099 137.955 30.584 137.862 30.3708C137.778 30.1577 137.656 29.9702 137.496 29.8082C137.336 29.6462 137.151 29.5226 136.941 29.4373C136.73 29.3436 136.507 29.2967 136.272 29.2967C136.036 29.2967 135.813 29.3436 135.602 29.4373C135.4 29.5226 135.219 29.6462 135.059 29.8082C134.908 29.9702 134.786 30.1577 134.693 30.3708C134.609 30.584 134.567 30.8099 134.567 31.0486V39.7442H131.12V26.0486H131.953L132.888 27.0972C133.367 26.688 133.894 26.3725 134.466 26.1509C135.047 25.9207 135.649 25.8056 136.272 25.8056C136.903 25.8056 137.517 25.925 138.115 26.1637C138.721 26.4024 139.251 26.8159 139.706 27.4041C139.916 27.1142 140.156 26.867 140.426 26.6624C140.695 26.4578 140.977 26.2916 141.272 26.1637C141.575 26.0358 141.886 25.9463 142.206 25.8951C142.526 25.8355 142.842 25.8056 143.153 25.8056C143.868 25.8056 144.538 25.942 145.161 26.2148C145.792 26.4876 146.339 26.8627 146.802 27.3402C147.273 27.809 147.644 28.3632 147.913 29.0026C148.183 29.6419 148.317 30.324 148.317 31.0486V39.7442Z" fill="white"/>
<path d="M165.047 21.4066L159.1 39.7442H155.476L149.555 21.4066H153.671L157.282 33.6445L160.906 21.4066H165.047Z" fill="white"/>
<path d="M170.489 22.3274C170.489 22.6513 170.426 22.954 170.3 23.2353C170.182 23.5166 170.018 23.7639 169.808 23.977C169.597 24.1816 169.349 24.3478 169.063 24.4757C168.785 24.5951 168.486 24.6547 168.166 24.6547C167.846 24.6547 167.543 24.5951 167.257 24.4757C166.979 24.3478 166.735 24.1816 166.525 23.977C166.323 23.7639 166.158 23.5166 166.032 23.2353C165.914 22.954 165.855 22.6513 165.855 22.3274C165.855 22.0119 165.914 21.7136 166.032 21.4322C166.158 21.1424 166.323 20.8951 166.525 20.6905C166.735 20.4774 166.979 20.3112 167.257 20.1918C167.543 20.0639 167.846 20 168.166 20C168.486 20 168.785 20.0639 169.063 20.1918C169.349 20.3112 169.597 20.4774 169.808 20.6905C170.018 20.8951 170.182 21.1424 170.3 21.4322C170.426 21.7136 170.489 22.0119 170.489 22.3274ZM169.896 39.7442H166.424V26.0486H169.896V39.7442Z" fill="white"/>
<path d="M186.07 32.7749C186.07 33.8491 185.889 34.8295 185.527 35.7161C185.166 36.6027 184.673 37.3657 184.05 38.0051C183.427 38.636 182.695 39.1262 181.853 39.4757C181.02 39.8252 180.123 40 179.164 40C178.213 40 177.316 39.821 176.474 39.4629C175.641 39.1049 174.909 38.6061 174.277 37.9668C173.654 37.3274 173.162 36.5686 172.8 35.6905C172.438 34.8039 172.257 33.8321 172.257 32.7749V20.601H175.717V26.9949C175.902 26.7562 176.125 26.5431 176.386 26.3555C176.655 26.1679 176.941 26.0145 177.245 25.8951C177.556 25.7758 177.876 25.6863 178.204 25.6266C178.532 25.5584 178.852 25.5243 179.164 25.5243C180.123 25.5243 181.02 25.7076 181.853 26.0742C182.695 26.4322 183.427 26.9352 184.05 27.5831C184.673 28.231 185.166 28.9983 185.527 29.8849C185.889 30.763 186.07 31.7263 186.07 32.7749ZM182.598 32.7749C182.598 32.2464 182.506 31.7562 182.32 31.3043C182.144 30.844 181.899 30.4476 181.588 30.1151C181.277 29.7826 180.91 29.5226 180.49 29.335C180.077 29.1475 179.635 29.0537 179.164 29.0537C178.692 29.0537 178.246 29.1603 177.825 29.3734C177.413 29.578 177.051 29.8551 176.739 30.2046C176.428 30.5456 176.184 30.942 176.007 31.3939C175.83 31.8372 175.742 32.2975 175.742 32.7749C175.742 33.3035 175.83 33.7937 176.007 34.2455C176.184 34.6974 176.428 35.0895 176.739 35.422C177.051 35.7545 177.413 36.0188 177.825 36.2148C178.246 36.4024 178.692 36.4962 179.164 36.4962C179.635 36.4962 180.077 36.4024 180.49 36.2148C180.91 36.0188 181.277 35.7545 181.588 35.422C181.899 35.0895 182.144 34.6974 182.32 34.2455C182.506 33.7937 182.598 33.3035 182.598 32.7749Z" fill="white"/>
<path d="M193.369 36.3939C193.503 36.4365 193.638 36.4663 193.773 36.4834C193.907 36.4919 194.042 36.4962 194.177 36.4962C194.513 36.4962 194.837 36.4493 195.149 36.3555C195.46 36.2617 195.751 36.1296 196.02 35.9591C196.298 35.7801 196.542 35.5669 196.752 35.3197C196.971 35.0639 197.148 34.7826 197.283 34.4757L199.808 37.046C199.488 37.5064 199.118 37.9199 198.697 38.2864C198.284 38.653 197.834 38.9642 197.346 39.2199C196.866 39.4757 196.357 39.6675 195.818 39.7954C195.288 39.9318 194.741 40 194.177 40C193.225 40 192.329 39.821 191.487 39.4629C190.654 39.1049 189.922 38.6061 189.29 37.9668C188.667 37.3274 188.175 36.5686 187.813 35.6905C187.451 34.8039 187.27 33.8321 187.27 32.7749C187.27 31.6922 187.451 30.7033 187.813 29.8082C188.175 28.913 188.667 28.15 189.29 27.5192C189.922 26.8883 190.654 26.3981 191.487 26.0486C192.329 25.6991 193.225 25.5243 194.177 25.5243C194.741 25.5243 195.292 25.5925 195.831 25.7289C196.369 25.8653 196.879 26.0614 197.359 26.3171C197.847 26.5729 198.301 26.8883 198.722 27.2634C199.143 27.63 199.513 28.0435 199.833 28.5038L193.369 36.3939ZM195.136 29.1944C194.976 29.1347 194.816 29.0963 194.656 29.0793C194.505 29.0622 194.345 29.0537 194.177 29.0537C193.705 29.0537 193.259 29.1432 192.838 29.3223C192.426 29.4928 192.064 29.74 191.752 30.0639C191.449 30.3879 191.209 30.7801 191.033 31.2404C190.856 31.6922 190.767 32.2038 190.767 32.7749C190.767 32.9028 190.772 33.0477 190.78 33.2097C190.797 33.3717 190.818 33.5379 190.843 33.7084C190.877 33.8704 190.915 34.0281 190.957 34.1816C190.999 34.335 191.054 34.4714 191.121 34.5908L195.136 29.1944Z" fill="white"/>
</svg>
