<svg width="117" height="35" viewBox="0 0 117 35" fill="none" xmlns="http://www.w3.org/2000/svg">
<path d="M29.6654 14.049C29.4205 6.37741 23.2042 0.186542 15.5068 0C15.3085 0 15.1452 0.151566 15.1452 0.349767L15.1336 5.503C15.1336 5.75949 14.9353 5.95769 14.6787 5.96935C7.0046 6.20253 0.811666 12.4284 0.625061 20.1233C0.625061 20.3215 0.776677 20.4847 0.974944 20.4847L6.11823 20.4963C6.37481 20.4963 6.57308 20.6945 6.58474 20.951C6.82966 28.6226 13.0576 34.8135 20.7434 35C20.9416 35 21.1049 34.8484 21.1049 34.6502L21.1166 29.497C21.1166 29.2405 21.3148 29.0423 21.5714 29.0306C29.2455 28.7858 35.4385 22.56 35.6251 14.8767C35.6251 14.6785 35.4734 14.5153 35.2752 14.5153L30.1319 14.5037C29.8753 14.5037 29.677 14.3055 29.6654 14.049ZM20.6034 28.9957C16.2415 28.7392 12.7427 25.1949 12.5794 20.8111C12.5677 20.6246 12.4161 20.473 12.2295 20.473L7.0979 20.4614C6.82966 20.4614 6.61973 20.2398 6.63139 19.9717C6.88797 15.6113 10.4335 12.1136 14.8187 11.9504C15.0053 11.9387 15.1569 11.7871 15.1569 11.6006L15.1685 6.45903C15.1685 6.19087 15.3901 5.98101 15.6584 5.99267C20.0203 6.24917 23.5191 9.79347 23.6824 14.1772C23.694 14.3638 23.8457 14.5153 24.0323 14.5153L29.1639 14.527C29.4321 14.527 29.6421 14.7485 29.6304 15.0167C29.3738 19.4937 25.6534 23.0496 21.1166 23.0496L21.1049 28.5293C21.0932 28.7975 20.8716 29.0073 20.6034 28.9957Z" fill="#E60000"/>
<path fill-rule="evenodd" clip-rule="evenodd" d="M14.9928 14.3983C14.9928 13.6928 15.7491 13.2456 16.3672 13.5856L22.0759 16.7254C22.7166 17.0778 22.7166 17.9984 22.0759 18.3508L16.3672 21.4905C15.7491 21.8305 14.9928 21.3833 14.9928 20.6779V14.3983Z" fill="white"/>
<path d="M37.3751 15.6949C37.3751 15.2523 37.4585 14.837 37.6255 14.4491C37.7924 14.0612 38.0183 13.7231 38.3031 13.4347C38.5928 13.1412 38.9292 12.91 39.3122 12.7409C39.6952 12.5718 40.1052 12.4873 40.5422 12.4873H45.3887V14.6282H40.5422C40.3949 14.6282 40.2574 14.6555 40.1297 14.7102C40.0021 14.7649 39.8891 14.842 39.7909 14.9415C39.6976 15.036 39.624 15.1479 39.57 15.2771C39.516 15.4064 39.4889 15.5457 39.4889 15.6949C39.4889 15.8441 39.516 15.9858 39.57 16.1201C39.624 16.2494 39.6976 16.3638 39.7909 16.4632C39.8891 16.5577 40.0021 16.6323 40.1297 16.687C40.2574 16.7417 40.3949 16.7691 40.5422 16.7691H42.6561C43.0931 16.7691 43.5031 16.8536 43.8861 17.0227C44.274 17.1868 44.6104 17.4155 44.8952 17.7089C45.1849 17.9974 45.4108 18.338 45.5728 18.7309C45.7398 19.1188 45.8232 19.534 45.8232 19.9766C45.8232 20.4192 45.7398 20.8345 45.5728 21.2224C45.4108 21.6103 45.1849 21.9509 44.8952 22.2443C44.6104 22.5328 44.274 22.7615 43.8861 22.9306C43.5031 23.0997 43.0931 23.1842 42.6561 23.1842H37.9643V21.0433H42.6561C42.8034 21.0433 42.9409 21.016 43.0686 20.9613C43.1962 20.9066 43.3067 20.832 43.4 20.7375C43.4982 20.638 43.5743 20.5237 43.6283 20.3944C43.6823 20.2651 43.7094 20.1258 43.7094 19.9766C43.7094 19.8274 43.6823 19.6882 43.6283 19.5589C43.5743 19.4296 43.4982 19.3177 43.4 19.2232C43.3067 19.1238 43.1962 19.0467 43.0686 18.992C42.9409 18.9373 42.8034 18.9099 42.6561 18.9099H40.5422C40.1052 18.9099 39.6952 18.8254 39.3122 18.6563C38.9292 18.4872 38.5928 18.2585 38.3031 17.97C38.0183 17.6766 37.7924 17.336 37.6255 16.9481C37.4585 16.5552 37.3751 16.1375 37.3751 15.6949Z" fill="white"/>
<path d="M50.8244 23.1842C50.3383 23.1842 49.8816 23.0922 49.4544 22.9082C49.0272 22.7192 48.6516 22.4631 48.3275 22.1399C48.0083 21.8117 47.7554 21.4312 47.5689 20.9986C47.3872 20.5659 47.2963 20.1034 47.2963 19.6111V17.239H46.3167V15.21H47.2963V12.0173H49.2997V15.21H52.349V17.239H49.2997V19.6111C49.2997 19.825 49.339 20.0264 49.4176 20.2153C49.4961 20.3993 49.6042 20.561 49.7417 20.7002C49.8792 20.8395 50.0412 20.9513 50.2278 21.0359C50.4144 21.1155 50.6132 21.1552 50.8244 21.1552H52.349V23.1842H50.8244Z" fill="white"/>
<path d="M55.4941 23.1842H53.4833V15.1951H53.9694L54.6323 16.1425C54.9564 15.8441 55.3247 15.6153 55.7371 15.4562C56.1496 15.2921 56.5768 15.21 57.0187 15.21H58.7938V17.239H57.0187C56.8076 17.239 56.6087 17.2788 56.4221 17.3584C56.2355 17.4379 56.0735 17.5473 55.936 17.6866C55.7985 17.8258 55.6905 17.9899 55.6119 18.1789C55.5334 18.3679 55.4941 18.5693 55.4941 18.7831V23.1842Z" fill="white"/>
<path d="M62.7196 21.2298C62.7982 21.2547 62.8767 21.2721 62.9553 21.2821C63.0339 21.287 63.1124 21.2895 63.191 21.2895C63.3874 21.2895 63.5764 21.2622 63.7581 21.2075C63.9398 21.1528 64.1092 21.0757 64.2663 20.9762C64.4284 20.8718 64.5708 20.7475 64.6935 20.6032C64.8212 20.454 64.9243 20.2899 65.0029 20.1109L66.476 21.6103C66.2894 21.8788 66.0733 22.12 65.8278 22.3338C65.5872 22.5477 65.3245 22.7292 65.0397 22.8784C64.7598 23.0276 64.4628 23.1395 64.1485 23.2141C63.8392 23.2936 63.52 23.3334 63.191 23.3334C62.6361 23.3334 62.1132 23.229 61.6221 23.0201C61.136 22.8113 60.7088 22.5203 60.3406 22.1474C59.9772 21.7744 59.6899 21.3318 59.4788 20.8196C59.2677 20.3024 59.1621 19.7354 59.1621 19.1188C59.1621 18.4872 59.2677 17.9104 59.4788 17.3882C59.6899 16.866 59.9772 16.4209 60.3406 16.0529C60.7088 15.6849 61.136 15.399 61.6221 15.1951C62.1132 14.9912 62.6361 14.8893 63.191 14.8893C63.52 14.8893 63.8416 14.929 64.1559 15.0086C64.4701 15.0882 64.7672 15.2026 65.0471 15.3517C65.3319 15.5009 65.597 15.6849 65.8426 15.9037C66.0881 16.1176 66.3041 16.3588 66.4907 16.6273L62.7196 21.2298ZM63.7508 17.0301C63.6575 16.9953 63.5642 16.9729 63.4709 16.963C63.3825 16.9531 63.2892 16.9481 63.191 16.9481C62.916 16.9481 62.6558 17.0003 62.4103 17.1047C62.1696 17.2042 61.9585 17.3484 61.7768 17.5374C61.6001 17.7264 61.4601 17.9551 61.357 18.2237C61.2539 18.4872 61.2023 18.7856 61.2023 19.1188C61.2023 19.1934 61.2048 19.2779 61.2097 19.3724C61.2195 19.4669 61.2318 19.5639 61.2465 19.6633C61.2662 19.7578 61.2882 19.8498 61.3128 19.9393C61.3374 20.0289 61.3693 20.1084 61.4086 20.178L63.7508 17.0301Z" fill="white"/>
<path d="M75.0862 23.1842H74.6001L73.8193 22.0877C73.6278 22.2617 73.4241 22.4258 73.208 22.58C72.9969 22.7292 72.7734 22.861 72.5378 22.9754C72.3021 23.0848 72.059 23.1718 71.8086 23.2364C71.5631 23.3011 71.3126 23.3334 71.0573 23.3334C70.5024 23.3334 69.9795 23.2389 69.4885 23.05C69.0023 22.861 68.5751 22.5875 68.2069 22.2294C67.8435 21.8664 67.5563 21.4238 67.3451 20.9016C67.134 20.3795 67.0284 19.7852 67.0284 19.1188C67.0284 18.4972 67.134 17.9278 67.3451 17.4106C67.5563 16.8884 67.8435 16.4408 68.2069 16.0679C68.5751 15.6949 69.0023 15.4064 69.4885 15.2026C69.9795 14.9937 70.5024 14.8893 71.0573 14.8893C71.3126 14.8893 71.5655 14.9216 71.8159 14.9862C72.0664 15.0509 72.3094 15.1404 72.5451 15.2548C72.7808 15.3691 73.0042 15.5034 73.2154 15.6576C73.4314 15.8117 73.6328 15.9783 73.8193 16.1574L74.6001 15.21H75.0862V23.1842ZM73.0607 19.1188C73.0607 18.8403 73.0067 18.5718 72.8987 18.3132C72.7955 18.0496 72.6531 17.8184 72.4715 17.6194C72.2898 17.4155 72.0762 17.2539 71.8307 17.1346C71.5901 17.0102 71.3323 16.9481 71.0573 16.9481C70.7823 16.9481 70.5221 16.9953 70.2766 17.0898C70.036 17.1843 69.8248 17.3235 69.6431 17.5075C69.4664 17.6915 69.3264 17.9203 69.2233 18.1938C69.1202 18.4624 69.0686 18.7707 69.0686 19.1188C69.0686 19.4669 69.1202 19.7777 69.2233 20.0512C69.3264 20.3198 69.4664 20.546 69.6431 20.73C69.8248 20.914 70.036 21.0533 70.2766 21.1478C70.5221 21.2423 70.7823 21.2895 71.0573 21.2895C71.3323 21.2895 71.5901 21.2298 71.8307 21.1105C72.0762 20.9862 72.2898 20.8245 72.4715 20.6256C72.6531 20.4217 72.7955 20.1905 72.8987 19.9319C73.0067 19.6683 73.0607 19.3973 73.0607 19.1188Z" fill="white"/>
<path d="M86.6573 23.1842H84.6539V18.1118C84.6539 17.9725 84.6269 17.8407 84.5729 17.7164C84.5238 17.5921 84.4526 17.4827 84.3593 17.3882C84.266 17.2937 84.158 17.2216 84.0352 17.1719C83.9125 17.1172 83.7824 17.0898 83.6449 17.0898C83.5074 17.0898 83.3773 17.1172 83.2545 17.1719C83.1367 17.2216 83.0311 17.2937 82.9378 17.3882C82.8494 17.4827 82.7782 17.5921 82.7242 17.7164C82.6751 17.8407 82.6505 17.9725 82.6505 18.1118V23.1842H80.6398V18.1118C80.6398 17.9725 80.6128 17.8407 80.5587 17.7164C80.5096 17.5921 80.4384 17.4827 80.3451 17.3882C80.2518 17.2937 80.1438 17.2216 80.0211 17.1719C79.8983 17.1172 79.7682 17.0898 79.6307 17.0898C79.4932 17.0898 79.3631 17.1172 79.2403 17.1719C79.1225 17.2216 79.0169 17.2937 78.9236 17.3882C78.8352 17.4827 78.764 17.5921 78.71 17.7164C78.6609 17.8407 78.6364 17.9725 78.6364 18.1118V23.1842H76.6256V15.1951H77.1117L77.6567 15.8068C77.9366 15.5681 78.2435 15.3841 78.5774 15.2548C78.9162 15.1205 79.2673 15.0534 79.6307 15.0534C79.999 15.0534 80.3574 15.123 80.706 15.2622C81.0596 15.4015 81.3689 15.6427 81.6341 15.9858C81.7569 15.8167 81.8968 15.6725 82.0539 15.5532C82.2111 15.4338 82.3756 15.3368 82.5474 15.2622C82.7242 15.1876 82.9059 15.1354 83.0925 15.1056C83.279 15.0708 83.4632 15.0534 83.6449 15.0534C84.0622 15.0534 84.4526 15.1329 84.816 15.2921C85.1842 15.4512 85.5034 15.67 85.7735 15.9485C86.0485 16.222 86.2645 16.5453 86.4216 16.9182C86.5788 17.2912 86.6573 17.6891 86.6573 18.1118V23.1842Z" fill="white"/>
<path d="M96.4166 12.4873L92.9474 23.1842H90.8336L87.3792 12.4873H89.7803L91.8868 19.626L94.0007 12.4873H96.4166Z" fill="white"/>
<path d="M99.5911 13.0244C99.5911 13.2134 99.5543 13.3899 99.4806 13.554C99.4119 13.7181 99.3161 13.8623 99.1933 13.9867C99.0706 14.106 98.9257 14.203 98.7588 14.2776C98.5967 14.3472 98.4224 14.382 98.2358 14.382C98.0492 14.382 97.8725 14.3472 97.7055 14.2776C97.5435 14.203 97.4011 14.106 97.2783 13.9867C97.1605 13.8623 97.0647 13.7181 96.9911 13.554C96.9223 13.3899 96.888 13.2134 96.888 13.0244C96.888 12.8404 96.9223 12.6663 96.9911 12.5022C97.0647 12.3331 97.1605 12.1889 97.2783 12.0696C97.4011 11.9452 97.5435 11.8483 97.7055 11.7786C97.8725 11.704 98.0492 11.6667 98.2358 11.6667C98.4224 11.6667 98.5967 11.704 98.7588 11.7786C98.9257 11.8483 99.0706 11.9452 99.1933 12.0696C99.3161 12.1889 99.4119 12.3331 99.4806 12.5022C99.5543 12.6663 99.5911 12.8404 99.5911 13.0244ZM99.2449 23.1842H97.2194V15.1951H99.2449V23.1842Z" fill="white"/>
<path d="M108.68 19.1188C108.68 19.7454 108.574 20.3173 108.363 20.8345C108.152 21.3517 107.865 21.7968 107.502 22.1697C107.138 22.5377 106.711 22.8237 106.22 23.0276C105.734 23.2315 105.211 23.3334 104.651 23.3334C104.096 23.3334 103.573 23.229 103.082 23.0201C102.596 22.8113 102.169 22.5203 101.801 22.1474C101.437 21.7744 101.15 21.3318 100.939 20.8196C100.728 20.3024 100.622 19.7354 100.622 19.1188V12.0173H102.64V15.7471C102.748 15.6079 102.879 15.4835 103.031 15.3741C103.188 15.2647 103.355 15.1752 103.532 15.1056C103.713 15.036 103.9 14.9837 104.091 14.9489C104.283 14.9091 104.469 14.8893 104.651 14.8893C105.211 14.8893 105.734 14.9962 106.22 15.21C106.711 15.4189 107.138 15.7123 107.502 16.0902C107.865 16.4682 108.152 16.9158 108.363 17.4329C108.574 17.9452 108.68 18.5071 108.68 19.1188ZM106.655 19.1188C106.655 18.8105 106.601 18.5245 106.493 18.261C106.389 17.9924 106.247 17.7612 106.065 17.5672C105.884 17.3733 105.67 17.2216 105.425 17.1122C105.184 17.0028 104.926 16.9481 104.651 16.9481C104.376 16.9481 104.116 17.0102 103.87 17.1346C103.63 17.2539 103.419 17.4155 103.237 17.6194C103.055 17.8184 102.913 18.0496 102.81 18.3132C102.707 18.5718 102.655 18.8403 102.655 19.1188C102.655 19.4271 102.707 19.7131 102.81 19.9766C102.913 20.2402 103.055 20.469 103.237 20.6629C103.419 20.8569 103.63 21.011 103.87 21.1254C104.116 21.2348 104.376 21.2895 104.651 21.2895C104.926 21.2895 105.184 21.2348 105.425 21.1254C105.67 21.011 105.884 20.8569 106.065 20.6629C106.247 20.469 106.389 20.2402 106.493 19.9766C106.601 19.7131 106.655 19.4271 106.655 19.1188Z" fill="white"/>
<path d="M112.937 21.2298C113.016 21.2547 113.094 21.2721 113.173 21.2821C113.252 21.287 113.33 21.2895 113.409 21.2895C113.605 21.2895 113.794 21.2622 113.976 21.2075C114.158 21.1528 114.327 21.0757 114.484 20.9762C114.646 20.8718 114.788 20.7475 114.911 20.6032C115.039 20.454 115.142 20.2899 115.221 20.1109L116.694 21.6103C116.507 21.8788 116.291 22.12 116.046 22.3338C115.805 22.5477 115.542 22.7292 115.257 22.8784C114.978 23.0276 114.68 23.1395 114.366 23.2141C114.057 23.2936 113.738 23.3334 113.409 23.3334C112.854 23.3334 112.331 23.229 111.84 23.0201C111.354 22.8113 110.927 22.5203 110.558 22.1474C110.195 21.7744 109.908 21.3318 109.696 20.8196C109.485 20.3024 109.38 19.7354 109.38 19.1188C109.38 18.4872 109.485 17.9104 109.696 17.3882C109.908 16.866 110.195 16.4209 110.558 16.0529C110.927 15.6849 111.354 15.399 111.84 15.1951C112.331 14.9912 112.854 14.8893 113.409 14.8893C113.738 14.8893 114.059 14.929 114.374 15.0086C114.688 15.0882 114.985 15.2026 115.265 15.3517C115.55 15.5009 115.815 15.6849 116.06 15.9037C116.306 16.1176 116.522 16.3588 116.708 16.6273L112.937 21.2298ZM113.968 17.0301C113.875 16.9953 113.782 16.9729 113.689 16.963C113.6 16.9531 113.507 16.9481 113.409 16.9481C113.134 16.9481 112.873 17.0003 112.628 17.1047C112.387 17.2042 112.176 17.3484 111.995 17.5374C111.818 17.7264 111.678 17.9551 111.575 18.2237C111.472 18.4872 111.42 18.7856 111.42 19.1188C111.42 19.1934 111.422 19.2779 111.427 19.3724C111.437 19.4669 111.449 19.5639 111.464 19.6633C111.484 19.7578 111.506 19.8498 111.53 19.9393C111.555 20.0289 111.587 20.1084 111.626 20.178L113.968 17.0301Z" fill="white"/>
</svg>
